<svg xmlns="http://www.w3.org/2000/svg"><symbol id="mecha-stilts" viewBox="0 0 256 256"><path d="M122 4.4l107.5 62v124.2l-107.5 62-107.5-62V66.4L122 4.4z"/><path fill="#ff9500" d="M63.1 174.4a2 2 0 0 1-2.1-2.1v-24.6H34.1a2.2 2.2 0 0 1-2-2.1 2.2 2.2 0 0 1 2-2h15.3v-13.3a1.9 1.9 0 0 1 2.1-2h7.9a64.6 64.6 0 0 1 62.4-49.5c.2-.3.4-.3.8 0a64.4 64.4 0 0 1 62 49.5h7.9a1.9 1.9 0 0 1 2.1 2v13.3h15.3a2.2 2.2 0 0 1 2 2 2.2 2.2 0 0 1-2 2.1H183v24.6a2 2 0 0 1-2.1 2.1zm-9.6-42v11.2h137v-11.2zM117.9 83c-26.1 1.7-47.9 20.6-54.2 45.3h21.8zm-52.8 64.7v22.6H120v-22.6zM120 87.1l-29.4 41.2H120zm4-4.3v45.5h56.3A60.6 60.6 0 0 0 124 82.8zm0 64.9v22.6h9.2v-22.6zm13.3 0v22.6h41.6v-22.6z"/></symbol><symbol id="space-bubbles" viewBox="0 0 256 256"><path d="M125.5 2.9l107.5 62v124.2l-107.5 62-107.5-62V64.9l107.5-62z"/><path fill="#ff9500" d="M64.7 177.4l-4.6-6.8a1.8 1.8 0 0 1 .2-2.4l16.9-20h-8.4a1.9 1.9 0 0 1-2-2v-14.7a2 2 0 0 1 2-2.1h11.8a58 58 0 0 1-2.2-15.5 48.4 48.4 0 0 1 48.3-48.1c26.3 0 48.1 21.9 48.1 48.1a51 51 0 0 1-2.2 15.5h11.8a2.1 2.1 0 0 1 2.1 2.1v14.7a2 2 0 0 1-2.1 2H174l16.7 20a2.1 2.1 0 0 1 0 2.4l-4.7 6.8a2.1 2.1 0 0 1-2.6.6l-9.8-5.1H77.2l-9.8 5.1a2.4 2.4 0 0 1-2.7-.6zm31-29.2H82.3l-18 21.2 2.9 4.1 34.4-18.2zm-24.8-14.7v10.6h111.5v-10.6zm14-4.1h83.4a50.3 50.3 0 0 0 2.5-15.5 44.2 44.2 0 0 0-88.3 0c0 5.3.4 10.9 2.4 15.5zm19.6 29.2l-19.4 10.2h27.8zm-3.5-10.4l17.2 20.6h14.6l17.2-20.6zm45.5 10.4l-8.4 10.2h27.8zm22.2-10.4h-13.4l-6.2 7.1 34.7 18.2 2.9-3.9z"/></symbol><symbol id="super-domes" viewBox="0 0 256 256"><path d="M128 3.9l107.5 62v124.2l-107.5 62-107.5-62V65.9L128 3.9z"/><path fill="#ff9500" d="M65.6 173.9a2.2 2.2 0 0 1-2-2.1 2.2 2.2 0 0 1 2-2h10.2v-12.9H65.6a1.9 1.9 0 0 1-2-2v-40.2a1.9 1.9 0 0 1 2-2h13.5c1-28.9 22.6-44.8 48.9-44.8s47.9 15.9 48.9 44.8h13.5a1.9 1.9 0 0 1 2 2v40.2a1.9 1.9 0 0 1-2 2h-10.2v12.9h10.2a2.2 2.2 0 0 1 2 2 2.2 2.2 0 0 1-2 2.1zm2.1-57.1v36.1h120.6v-36.1zm12.2 40.1v12.9h13v-12.9zm3.2-44.2h89.7c-1-26.3-21-40.8-44.8-40.8s-43.8 14.5-44.9 40.8zM97 156.9v12.9h20.4v-12.9zm24.5 0v12.9h13v-12.9zm55.2-13.8H127a2.1 2.1 0 1 1 0-4.1h49.7a2.1 2.1 0 1 1 0 4.1zm-38.1 13.8v12.9H159v-12.9zm24.5 0v12.9h13v-12.9z"/></symbol></svg>